<?xml version="1.0" ?><svg height="1000" width="1000" xmlns="http://www.w3.org/2000/svg"><path d="M776 979l-6-3c-4-4-5-7-5-20l-1-14c0-2-5-2-44-2-40 0-45 0-45 2l-1 12c0 11 0 12-2 15-3 4-8 7-13 7s-10-3-13-7c-2-3-2-4-2-15l-1-12c0-2-5-2-43-2-39 0-44 0-44 2l-1 13c0 11 0 12-2 15-3 4-8 7-13 7s-10-3-13-7c-2-3-2-4-2-15l-1-13c0-2-5-2-44-2-40 0-45 0-45 2l-1 12c0 10 0 12-2 15l-6 5c-6 4-15 2-20-5-2-3-2-5-2-15l-1-12c0-2-5-2-44-2s-44 0-44 2l-1 14c0 12 0 13-2 16-7 9-19 9-26 0-2-3-2-4-2-16l-1-14c0-2-5-2-44-2s-44 0-44 2l-1 13c0 11 0 13-2 16-4 7-14 9-21 5-6-4-7-7-7-21l-1-13c0-2-4-2-34-2-36 0-37 0-43-6-7-6-7-6-7-43l-1-35-13-1c-10 0-12 0-15-2-10-7-10-19 0-26 3-2 5-2 15-2l13-1c2-2 2-87 0-89l-14-1c-11 0-13 0-16-2-9-6-9-20 0-26 3-2 5-2 16-2l14-1c2-2 2-85 0-87l-13-1c-11 0-13 0-16-2-9-6-9-20 0-26 3-2 5-2 16-2l13-1c2-2 2-85 0-87l-13-1c-13 0-16-1-20-7-3-4-3-12 0-16 4-6 7-7 20-7l13-1c2-2 2-87 0-89l-12-1c-12 0-15-1-19-7-3-4-3-12 0-16 4-6 7-7 19-7l12-1c2-2 2-86 0-88l-12-1c-11 0-14-1-18-7-3-4-3-12 0-16 4-6 7-7 18-7l12-1 1-75c0-72 0-74 2-78 3-5 8-10 14-11 10-3 22 5 24 16l1 414v409h83v-39l-21-1-22-1-1-204V452l6-7c9-8 28-25 41-34a453 453 0 01314-88 446 446 0 01201 72c3 1 3 1 7-2 7-7 12-9 20-7 10 3 18 15 15 24l-3 7-2 4 6 6a446 446 0 01158 329l-3 101c-1 2-2 2-72 2l-71 1v39h84l85 1 4 2c13 8 14 26 1 34l-4 4h-75l-75 1-1 15c0 12 0 13-2 16-5 6-11 9-17 7zM365 879v-19h-68l-1 18v20l35 1h34zm160 2l-1-20v-2h-34l-34 1-1 18v20l35 1h35zm160-2v-19l-35-1-36 1v38l35 1h36zm92-499c-10-5-14-18-9-27 7-13 23-15 33-4 3 2 6 10 6 13 0 7-6 16-13 19-5 2-12 1-17-1zm48-43c-5-2-11-9-13-14-1-5-1-7 1-12 1-4 8-12 42-46 28-27 43-42 46-43 7-4 17-2 23 4 5 6 6 15 3 23l-44 45c-35 35-42 42-45 43h-13z" fill="#fde790"/><path d="M776 979l-6-3c-4-4-5-7-5-20l-1-14c0-2-5-2-44-2-40 0-45 0-45 2l-1 12c0 11 0 12-2 15-3 4-8 7-13 7s-10-3-13-7c-2-3-2-4-2-15l-1-12c0-2-5-2-43-2-39 0-44 0-44 2l-1 13c0 11 0 12-2 15-3 4-8 7-13 7s-10-3-13-7c-2-3-2-4-2-15l-1-13c0-2-5-2-44-2-40 0-45 0-45 2l-1 12c0 10 0 12-2 15l-6 5c-6 4-15 2-20-5-2-3-2-5-2-15l-1-12c0-2-5-2-44-2s-44 0-44 2l-1 14c0 12 0 13-2 16-7 9-19 9-26 0-2-3-2-4-2-16l-1-14c0-2-5-2-44-2s-44 0-44 2l-1 13c0 11 0 13-2 16-4 7-14 9-21 5-6-4-7-7-7-21l-1-13c0-2-4-2-34-2-36 0-37 0-43-6-7-6-7-6-7-43l-1-35-13-1c-10 0-12 0-15-2-10-7-10-19 0-26 3-2 5-2 15-2l13-1c2-2 2-87 0-89l-14-1c-11 0-13 0-16-2-9-6-9-20 0-26 3-2 5-2 16-2l14-1c2-2 2-85 0-87l-13-1c-11 0-13 0-16-2-9-6-9-20 0-26 3-2 5-2 16-2l13-1c2-2 2-85 0-87l-13-1c-13 0-16-1-20-7-3-4-3-12 0-16 4-6 7-7 20-7l13-1c2-2 2-87 0-89l-12-1c-12 0-15-1-19-7-3-4-3-12 0-16 4-6 7-7 19-7l12-1c2-2 2-86 0-88l-12-1c-11 0-14-1-18-7-3-4-3-12 0-16 4-6 7-7 18-7l12-1 1-75c0-72 0-74 2-78 3-5 8-10 14-11 10-3 22 5 24 16l1 414v409h41l42-1V793l1-113c0-6 3-10 7-13l37-1h34l4 2c6 3 9 8 9 14l1 112 1 106h68v-66l1-72c0-7 3-11 8-14 3-2 5-2 36-2l36 1c5 3 8 7 8 13l1 73v67h69V774l1-131c0-8 3-12 8-15 3-2 5-2 36-2l36 1c4 3 7 7 8 12l1 132v128h71V713l1-192c0-7 3-11 8-14 3-2 5-2 36-2l36 1c5 3 8 7 8 13l1 193 1 187h84l85 1 4 2c13 8 14 26 1 34l-4 4h-75l-75 1-1 15c0 12 0 13-2 16-5 6-11 9-17 7zM241 598c-9-4-73-41-76-44l-5-9c-2-5-2-5 0-9 4-10 10-15 19-15 6 0 5-1 38 19l28 15c1 0 27-25 57-56 39-39 58-56 60-57 5-2 12-2 17 0l39 36 35 35 29-28c31-31 32-32 41-31 9 2 17 11 17 20 0 8-3 11-40 49l-38 37c-5 2-13 2-18-1-2-2-20-18-38-37l-35-34c-1 0-26 24-55 54-57 57-59 58-67 58l-8-2zm419-161l-58-15-9 7c-11 11-19 14-29 10-8-4-13-14-10-23a155 155 0 0132-34c5-3 12-4 18-1a1573 1573 0 00105 29c2 0 5-2 12-10 14-14 18-16 27-14 10 3 18 15 15 24-1 5-5 11-7 11l-15 14c-14 15-17 17-24 17l-57-15zm117-57c-10-5-14-18-9-27 7-13 23-15 33-4 3 2 6 10 6 13 0 7-6 16-13 19-5 2-12 1-17-1zm48-43c-5-2-11-9-13-14-1-5-1-7 1-12 1-4 8-12 42-46 28-27 43-42 46-43 7-4 17-2 23 4 5 6 6 15 3 23l-44 45c-35 35-42 42-45 43h-13z" fill="#abd7e0"/><path d="M776 977l-5-1-2-4c-3-3-3-4-3-17l-1-14c0-2-5-2-45-2-41 0-46 0-46 2l-1 12c0 10 0 12-2 15-6 9-18 9-24 0-2-3-2-5-2-15l-1-12c0-2-5-2-44-2-40 0-45 0-45 2l-1 13c0 11 0 12-2 15-6 9-18 9-24 0-2-3-2-5-2-15l-1-13c0-2-5-2-45-2-41 0-46 0-46 2l-1 12c0 8 0 12-2 15-4 9-20 9-24 0-2-3-2-7-2-15l-1-12c0-2-5-2-45-2s-45 0-45 2l-1 14c0 11 0 13-2 16-6 9-18 9-24 0-2-3-2-4-2-16l-1-14c0-2-5-2-45-2h-45v2l-1 15c0 12-1 13-3 16-7 7-15 7-22 0-2-3-3-4-3-16l-1-15v-2h-34c-34 0-35 0-39-2l-7-7-3-4-1-35-1-36-13-1c-8 0-12 0-15-2-9-4-9-20 0-24 3-2 7-2 15-2l13-1c2-2 2-89 0-91l-15-1c-13 0-14-1-17-3-7-7-7-15 0-22 3-2 4-3 17-3l15-1c2-2 2-87 0-89l-15-1c-12 0-13-1-16-3-7-7-7-15 0-22 3-2 4-3 16-3l15-1c2-2 2-87 0-89l-13-1c-11 0-13 0-16-2-8-6-8-18 0-24 3-2 5-2 16-2l13-1c2-2 2-89 0-91l-12-1c-10 0-12 0-15-2-8-6-8-18 0-24 3-2 5-2 15-2l12-1c2-2 2-88 0-90l-12-1c-9 0-11 0-14-2-8-6-8-18 0-24 3-2 5-2 14-2l12-1 1-75c0-74 0-74 2-79 6-13 25-14 33-1l3 4v412l1 413 43 1h42V787c1-125 0-116 7-120 3-2 4-2 37-2h34l5 3 6 5c1 2 2 7 2 115l1 112h70v-73c1-81 0-76 7-80 3-2 6-2 37-2 36 0 36 0 41 5l3 3v73l1 74h231V707c0-183 1-193 2-195l5-5c3-2 6-2 37-2 36 0 36 0 41 5l3 3v193l1 194h84c83 0 85 1 88 3 12 5 15 20 7 29-7 7-3 7-85 7-66 0-74 0-74 2l-1 14c0 12 0 14-2 17-4 5-10 8-17 5zM241 598c-8-4-73-41-75-44-13-12-5-33 13-33 6 0 5-1 38 19l28 15c1 0 27-25 57-56 39-39 58-56 60-57 5-2 12-2 17 0l39 36 35 35 29-28c31-31 32-32 41-31 9 2 17 11 17 20 0 8-3 11-40 49l-38 37c-5 2-13 2-18-1-2-2-20-18-38-37l-35-34c-1 0-26 24-55 54-57 57-59 58-67 58l-8-2zm419-161l-58-15-9 7c-11 11-19 14-29 10-8-4-13-14-10-23a155 155 0 0132-34c5-3 12-4 18-1a1573 1573 0 00105 29l13-10c11-11 14-13 22-13 10 0 18 8 18 19 0 7-2 10-20 28-15 16-18 18-25 18l-57-15zm119-58c-7-3-12-10-12-17 0-4 2-10 5-13 12-12 33-4 33 13 0 5-2 11-6 14-5 5-15 6-21 3zm47-43c-6-2-12-9-13-14s-1-9 2-14 82-84 86-85c8-4 15-2 21 3 6 6 8 14 4 22-1 4-80 83-85 86s-11 3-16 2z" fill="#82a7af"/><path d="M774 976c-7-3-7-5-8-22 0-14 0-15-2-15h-89c-2 0-2 2-2 12 0 13-1 16-6 20-4 4-12 4-16 0-5-4-6-7-6-20 0-11 0-12-2-12h-87c-2 0-2 1-2 12 0 14-1 17-6 21-7 6-17 3-21-6l-1-15c0-10 0-12-2-12h-89c-2 0-2 1-2 12 0 13-1 18-6 21-7 5-16 3-20-5-2-4-2-6-2-16 0-11 0-12-2-12h-88c-2 0-2 2-2 13 0 15-1 18-6 22-4 4-12 4-16 0-5-4-6-7-6-22 0-11 0-13-2-13h-88c-2 0-2 1-2 13 0 16-1 20-8 23-6 3-6 3-12 0-7-3-8-7-8-23v-13l-37-1H92l-4-4c-8-6-7-5-8-44v-35l-13-1c-14-1-18-2-21-8-2-4-2-8 0-12 3-6 7-7 21-8h13v-92l-14-1c-16-1-19-2-22-8s-3-6 0-12 6-7 22-8h14v-90l-13-1c-16-1-19-2-22-8s-3-6 0-12 6-7 22-8h13v-90l-14-1c-11 0-13-1-16-3-8-6-8-17 1-23 2-1 5-2 15-2h14v-92l-13-1c-10 0-12-1-15-3-8-6-8-17 1-23 2-1 5-2 14-2h13v-91l-12-1c-10 0-12-1-15-3-8-6-8-17 1-23 2-1 5-2 14-2h12v-75c0-74 1-76 3-79 2-5 8-10 14-11 7-1 15 4 19 10 1 3 2 29 2 417l1 413 43-1a17907 17907 0 01248 0 1092700 1092700 0 00449 1c95 1 89 0 94 7 8 9 6 22-4 28l-5 2h-73l-75 1c-2 0-2 1-2 15 0 12-1 15-2 17-4 6-12 8-18 5zM241 598c-8-4-73-41-75-44-5-4-6-8-6-15 0-5 1-7 3-10 4-5 10-8 16-8s5-1 38 19l28 15c1 0 27-25 57-56 39-39 58-56 60-57 5-2 12-2 17 0l39 36 35 35 29-28c31-31 32-32 41-31 9 2 17 11 17 20 0 8-3 11-40 49l-38 37c-5 2-13 2-18-1-2-2-20-18-38-37l-35-34c-1 0-26 24-55 54-57 57-59 58-67 58l-8-2zm419-161l-58-15-9 7c-11 11-19 14-29 10-8-4-13-14-10-23a155 155 0 0132-34c5-3 12-4 18-1a1573 1573 0 00105 29c1 0 5-2 11-8 11-11 14-13 19-14 12-3 24 8 23 20-1 6-5 11-21 27-14 15-17 17-24 17l-57-15zm118-58c-12-7-14-22-4-31 5-3 11-5 16-4 8 1 15 10 15 18s-6 16-14 18c-5 1-7 1-13-1zm45-45c-8-4-12-14-9-23 2-4 11-13 44-46 39-39 42-42 46-43 6-1 9-1 15 3 6 3 10 12 8 20-1 4-4 7-42 46-28 28-43 42-46 43-5 3-11 2-16 0z" fill="#8d8d8d"/><path d="M774 975c-6-3-6-5-7-21v-15h-94l-1 13-2 15c-5 8-17 8-22 0l-2-15v-13h-92l-1 13-2 16c-5 8-17 8-22 0l-2-16v-13h-94l-1 13c-1 13-1 15-5 19-3 2-4 3-8 3s-5-1-8-3c-4-4-4-6-5-19v-13h-93l-1 14c0 9-1 15-2 17-5 8-17 8-22 0-1-2-2-8-2-17v-14h-93l-1 14c-1 15-1 17-7 21-5 3-13 1-17-5-1-2-2-5-2-16v-14l-35-1c-40-1-41-1-46-9l-3-4-1-36v-35l-13-1c-14-1-16-1-20-5-2-3-2-4-2-8s0-5 2-8c4-4 6-4 20-5h13v-94l-15-1c-11 0-14-1-16-2-8-6-8-16 0-22 2-1 5-2 16-2h15v-92l-14-1c-11 0-14-1-16-2-8-6-8-16 0-22 2-1 5-2 16-2h14v-92l-14-1c-15-1-18-1-20-7-2-5-2-7 0-12 2-6 5-6 20-7h14v-94l-13-1c-14-1-17-2-19-7s-2-7 0-12 5-6 19-7h13v-93l-12-1c-14-1-17-2-19-7s-2-7 0-12 5-6 18-7h13v-76c0-53 1-76 2-78 1-4 7-9 11-10 8-3 17 2 21 9l2 5v411l1 413 44 1 43-1a600 600 0 01126 1l36-1c1-2 8-2 43-2l43 1c2 2 231 2 234 0s84-2 86 1l86 1h84l4 2c10 5 13 18 6 27-7 7-1 6-84 7l-75 1-1 15c-1 16-1 19-7 21-5 2-8 2-12 0zM242 598l-76-44c-4-4-5-7-5-14 0-11 7-18 18-18 5 0 7 1 35 17l32 17 58-56c31-32 58-57 59-58h15l38 37 37 35 30-28c29-30 31-31 38-31 4 0 10 3 13 7 5 5 6 12 3 19-1 3-15 18-38 41-32 32-38 37-41 38-4 1-9 1-13-2l-37-36-37-35c-2 0-21 19-57 54-36 37-55 55-57 56-5 2-11 2-15 1zm418-162l-58-15c-2 0-4 2-10 8-10 10-17 13-26 10-6-2-12-11-12-17 0-7 2-10 16-24l18-17c5-1 11-1 16 1a1589 1589 0 00105 29l8-6c10-9 18-15 22-16 11-4 23 7 22 19-1 6-5 11-20 27-14 14-17 16-24 16l-57-15zm120-58c-4-1-8-5-10-8v-15c3-7 12-12 19-10 8 1 15 9 15 17 0 5-4 12-8 15-5 3-11 4-16 1zm45-44c-10-4-13-15-9-24 1-3 15-18 42-45 44-43 45-44 53-43 7 2 14 9 16 16 1 8 0 9-43 53-27 26-42 41-45 42-4 2-10 3-15 1z" fill="#7d8c90"/><path d="M774 975c-6-3-6-5-7-21v-15h-94l-1 13-2 15c-5 8-17 8-22 0l-2-15v-13h-92l-1 13-2 16c-5 8-17 8-22 0l-2-16v-13h-94l-1 13c-1 13-1 15-5 19-3 2-4 3-8 3s-5-1-8-3c-4-4-4-6-5-19v-13h-93l-1 14c0 9-1 15-2 17-5 8-17 8-22 0-1-2-2-8-2-17v-14h-93l-1 14c-1 15-1 17-7 21-5 3-13 1-17-5-1-2-2-5-2-16v-14l-35-1c-40-1-41-1-46-9l-3-4-1-36v-35l-13-1c-14-1-16-1-20-5-2-3-2-4-2-8s0-5 2-8c4-4 6-4 20-5h13v-94l-15-1c-11 0-14-1-16-2-8-6-8-16 0-22 2-1 5-2 16-2h15v-92l-14-1c-11 0-14-1-16-2-8-6-8-16 0-22 2-1 5-2 16-2h14v-92l-14-1c-15-1-18-1-20-7-2-5-2-7 0-12 2-6 5-6 20-7h14v-94l-13-1c-14-1-17-2-19-7s-2-7 0-12 5-6 19-7h13v-93l-12-1c-14-1-17-2-19-7s-2-7 0-12 5-6 18-7h13v-76c0-53 1-76 2-78 1-4 7-9 11-10 8-3 17 2 21 9l2 5v411l1 413 413 1h411l5 2c10 5 13 18 6 27-7 7-1 6-84 7l-75 1-1 15c-1 16-1 19-7 21-5 2-8 2-12 0zM242 598l-76-44c-4-4-5-7-5-14 0-11 7-18 18-18 5 0 7 1 35 17l32 17 58-56c31-32 58-57 59-58h15l38 37 37 35 30-28c29-30 31-31 38-31 4 0 10 3 13 7 5 5 6 12 3 19-1 3-15 18-38 41-32 32-38 37-41 38-4 1-9 1-13-2l-37-36-37-35c-2 0-21 19-57 54-36 37-55 55-57 56-5 2-11 2-15 1zm418-162l-58-15c-2 0-4 2-10 8-10 10-17 13-26 10-6-2-12-11-12-17 0-7 2-10 16-24l18-17c5-1 11-1 16 1a1589 1589 0 00105 29l8-6c10-9 18-15 22-16 11-4 23 7 22 19-1 6-5 11-20 27-14 14-17 16-24 16l-57-15zm120-58c-4-1-8-5-10-8v-15c3-7 12-12 19-10 8 1 15 9 15 17 0 5-4 12-8 15-5 3-11 4-16 1zm45-44c-10-4-13-15-9-24 1-3 15-18 42-45 44-43 45-44 53-43 7 2 14 9 16 16 1 8 0 9-43 53-27 26-42 41-45 42-4 2-10 3-15 1z" fill="#8c897c"/><path d="M775 975c-7-3-7-5-8-22l-1-15a763 763 0 00-93 0l-1 13c-1 14-2 17-7 20-6 4-14 1-17-5-1-1-2-7-2-15l-1-13a731 731 0 00-91 0l-1 14c-1 14-2 17-7 20-6 4-14 1-17-5-1-1-2-7-2-16l-1-13a763 763 0 00-93 0l-1 14c0 10-1 13-2 15-6 8-16 8-22 0-1-2-2-5-2-15l-1-14a746 746 0 00-92 0l-1 15c-1 15-1 18-7 21-6 4-14 1-17-5-1-2-2-7-2-17l-1-14a747 747 0 00-92 0l-1 15c0 11-1 14-2 16-5 8-17 8-22 0-1-2-2-5-2-17l-1-14-35-1-37-1c-3-1-8-6-10-9l-1-36-1-35c-1-3-1-3-14-3-14-1-16-1-20-7-2-3-2-9 0-12 4-6 6-6 20-7 13 0 13 0 14-3 2-4 1-88 0-90s-4-2-15-2l-16-2c-8-5-8-17 0-22l16-2c11 0 14 0 15-2s2-84 0-88c-1-3-1-3-14-3l-16-2c-8-5-8-17 0-22l16-2c13 0 13 0 14-3 2-4 1-86 0-88s-4-2-14-2c-14-1-17-2-20-8-3-5-2-9 2-13 3-4 7-5 20-5 10 0 11 0 12-2v-90c-1-3-1-3-11-3-12 0-16-1-19-5-4-4-5-8-2-13 3-6 6-7 19-8 9 0 12 0 13-2 2-2 2-88 0-90-1-1-4-2-13-2-12-1-15-2-18-8-3-5-2-9 2-13 3-4 7-5 19-5 9 0 9 0 10-3l1-76c0-80 0-76 6-81 9-8 21-5 27 5 1 3 2 29 2 417l1 413h411l415 1c5 1 10 7 12 13 2 7-2 15-9 19-4 2-6 2-78 2l-75 1-1 15c0 12-1 15-2 17-4 6-11 8-16 5zM243 597l-74-42c-4-3-8-12-8-17 1-5 4-9 8-12 3-2 4-2 10-2h7l28 16 30 17c2 1 12-9 59-55 31-31 58-58 60-58 4-3 11-2 16 0l38 36 36 35 30-28c24-24 29-29 33-30 8-2 16 1 20 9 3 6 3 11 0 16l-38 40c-40 40-40 40-49 37-4-1-9-6-41-38l-38-36-55 55c-38 38-57 55-59 56-4 2-9 2-13 1zm469-148l-110-29c-2 0-5 2-10 8-11 11-18 13-27 9-8-4-11-12-9-20a143 143 0 0131-33c5-4 12-4 18-1l104 29c3 0 4-1 14-11l15-12 4-1c3 0 10 2 13 6 6 6 7 13 3 20-2 4-31 33-34 35h-12zm68-71c-4-1-7-4-9-8a17 17 0 1132-12c2 7-2 16-9 20h-14zm44-45c-8-4-11-12-9-20a783 783 0 0187-88c10-5 22 1 24 12 1 10 2 8-42 53-28 27-43 42-46 43-5 3-9 2-14 0z" fill="#7a7a7a"/></svg>
